STARTFONT 2.1
FONT -Adobe-ITC Lubalin Graph-Book-R-Normal--33-240-100-100-P-180-ISO8859-15
SIZE 24 100 100
FONTBOUNDINGBOX 34 37 -2 -7

STARTPROPERTIES 30
FOUNDRY "Adobe"
FAMILY_NAME "ITC Lubalin Graph"
WEIGHT_NAME "Book"
SLANT "R"
SETWIDTH_NAME "Normal"
ADD_STYLE_NAME ""
PIXEL_SIZE 33
POINT_SIZE 240
RESOLUTION_X 100
RESOLUTION_Y 100
SPACING "P"
AVERAGE_WIDTH 180
CHARSET_REGISTRY "ISO8859"
CHARSET_ENCODING "15"
CAP_HEIGHT 23
X_HEIGHT 17
FACE_NAME "ITC Lubalin Graph Book"
COPYRIGHT "Copyright (c) 1984, 1987 Adobe Systems Incorporated. All Rights Reserved. Copyright (c) 1988, 1991 Digital Equipment Corporation. All Rights Reserved."
NOTICE "ITC Lubalin Graph is a registered trademark of International Typeface Corporation."
_DEC_DEVICE_FONTNAMES "PS=LubalinGraph-Book"
_DEC_PRODUCTINFO "DECwindows Fonts V2.2, 07-Nov-1991"
RELATIVE_SETWIDTH 50
RELATIVE_WEIGHT 40
CHARSET_COLLECTIONS "ASCII ISO8859-1 ADOBE-STANDARD"
FULL_NAME "ITC Lubalin Graph Book"
WEIGHT 10
QUAD_WIDTH 20
DEFAULT_CHAR 32
FONT_DESCENT 7
FONT_ASCENT 27
ENDPROPERTIES

CHARS 191

STARTCHAR space
ENCODING 32
SWIDTH 300 0
DWIDTH 10 0
BBX 1 1 0 0
BITMAP
00
ENDCHAR

STARTCHAR exclam
ENCODING 33
SWIDTH 140 0
DWIDTH 4 0
BBX 2 23 1 0
BITMAP
C0
C0
C0
C0
C0
C0
C0
C0
C0
C0
C0
C0
C0
C0
C0
C0
C0
00
00
00
C0
C0
C0
ENDCHAR

STARTCHAR quotedbl
ENCODING 34
SWIDTH 280 0
DWIDTH 9 0
BBX 6 7 2 16
BITMAP
CC
CC
CC
CC
CC
CC
CC
ENDCHAR

STARTCHAR numbersign
ENCODING 35
SWIDTH 580 0
DWIDTH 19 0
BBX 15 23 2 0
BITMAP
0630
0630
0630
0630
0630
0C60
0C60
0C60
FFFE
FFFE
18C0
18C0
18C0
FFFC
FFFC
18C0
18C0
3180
3180
3180
3180
3180
3180
ENDCHAR

STARTCHAR dollar
ENCODING 36
SWIDTH 580 0
DWIDTH 18 0
BBX 14 29 2 -3
BITMAP
0300
0300
0300
0FB0
3FF0
7370
6330
C330
C330
C300
E300
6300
7B00
1F80
07E0
0378
0318
031C
030C
030C
C30C
C30C
E318
F338
DFF0
C7C0
0300
0300
0300
ENDCHAR

STARTCHAR percent
ENCODING 37
SWIDTH 800 0
DWIDTH 25 0
BBX 23 23 1 0
BITMAP
1E0080
3F0180
618300
C0C300
C0C200
C0C600
C0C400
618C00
3F0800
1E1800
001000
003000
003000
0021F0
0063F8
00460C
00CC06
008C06
018C06
010C06
03060C
0303F8
0601F0
ENDCHAR

STARTCHAR ampersand
ENCODING 38
SWIDTH 720 0
DWIDTH 23 0
BBX 19 23 2 0
BITMAP
078000
0FC000
186000
303000
303000
303000
303000
186000
1CE000
0F81E0
0701E0
1F8300
39C300
60E600
607600
C03C00
C01C00
C00E00
C01F00
603380
7061C0
3FC0E0
0F8040
ENDCHAR

STARTCHAR quoteright
ENCODING 39
SWIDTH 200 0
DWIDTH 6 0
BBX 4 6 1 17
BITMAP
30
20
60
60
40
C0
ENDCHAR

STARTCHAR parenleft
ENCODING 40
SWIDTH 340 0
DWIDTH 11 0
BBX 8 27 2 -4
BITMAP
01
03
07
0E
1C
38
30
70
60
60
C0
C0
C0
C0
C0
C0
C0
60
60
70
30
38
1C
0E
07
03
01
ENDCHAR

STARTCHAR parenright
ENCODING 41
SWIDTH 340 0
DWIDTH 11 0
BBX 8 27 1 -4
BITMAP
80
C0
E0
70
38
1C
0C
0E
06
06
03
03
03
03
03
03
03
06
06
0E
0C
1C
38
70
E0
C0
80
ENDCHAR

STARTCHAR asterisk
ENCODING 42
SWIDTH 340 0
DWIDTH 11 0
BBX 8 7 2 16
BITMAP
66
24
18
FF
18
24
66
ENDCHAR

STARTCHAR plus
ENCODING 43
SWIDTH 660 0
DWIDTH 21 0
BBX 16 16 2 3
BITMAP
0180
0180
0180
0180
0180
0180
0180
FFFF
FFFF
0180
0180
0180
0180
0180
0180
0180
ENDCHAR

STARTCHAR comma
ENCODING 44
SWIDTH 300 0
DWIDTH 9 0
BBX 4 6 3 -3
BITMAP
30
20
60
60
40
C0
ENDCHAR

STARTCHAR minus
ENCODING 45
SWIDTH 660 0
DWIDTH 21 0
BBX 15 2 3 10
BITMAP
FFFE
FFFE
ENDCHAR

STARTCHAR period
ENCODING 46
SWIDTH 300 0
DWIDTH 9 0
BBX 2 3 4 0
BITMAP
C0
C0
C0
ENDCHAR

STARTCHAR slash
ENCODING 47
SWIDTH 580 0
DWIDTH 19 0
BBX 15 28 1 -5
BITMAP
0006
000E
000C
0018
0018
0030
0030
0060
0060
00C0
00C0
00C0
0180
0180
0300
0300
0600
0600
0C00
0C00
1800
1800
3000
3000
6000
6000
C000
C000
ENDCHAR

STARTCHAR zero
ENCODING 48
SWIDTH 580 0
DWIDTH 18 0
BBX 15 23 1 0
BITMAP
07C0
1FF0
3838
701C
600C
C006
C006
C006
C006
C006
C006
C006
C006
C006
C006
C006
C006
C006
600C
701C
3838
1FF0
07C0
ENDCHAR

STARTCHAR one
ENCODING 49
SWIDTH 580 0
DWIDTH 18 0
BBX 9 23 4 0
BITMAP
FC00
FC00
0C00
0C00
0C00
0C00
0C00
0C00
0C00
0C00
0C00
0C00
0C00
0C00
0C00
0C00
0C00
0C00
0C00
0C00
0C00
7F80
7F80
ENDCHAR

STARTCHAR two
ENCODING 50
SWIDTH 580 0
DWIDTH 18 0
BBX 14 23 2 0
BITMAP
0FC0
1FE0
3870
6018
601C
C00C
C00C
C00C
001C
0018
0038
0070
00E0
01C0
0380
0700
0E00
1C0C
380C
700C
E00C
FFFC
FFFC
ENDCHAR

STARTCHAR three
ENCODING 51
SWIDTH 580 0
DWIDTH 18 0
BBX 14 23 2 0
BITMAP
0F80
1FC0
30E0
6070
6030
0030
0030
0070
0060
07C0
07E0
0070
0018
001C
000C
000C
C00C
C00C
E01C
6018
3870
1FE0
07C0
ENDCHAR

STARTCHAR four
ENCODING 52
SWIDTH 580 0
DWIDTH 18 0
BBX 16 23 1 0
BITMAP
0038
0078
0078
00D8
01D8
0198
0318
0718
0618
0C18
1C18
1818
3018
7018
6018
FFFF
FFFF
0018
0018
0018
0018
00FF
00FF
ENDCHAR

STARTCHAR five
ENCODING 53
SWIDTH 580 0
DWIDTH 18 0
BBX 15 23 1 0
BITMAP
1FFC
1FFC
1000
3000
3000
3000
3000
3000
27C0
7FF0
7838
601C
000C
0006
0006
0006
8006
C006
E00C
601C
3838
1FF0
07C0
ENDCHAR

STARTCHAR six
ENCODING 54
SWIDTH 580 0
DWIDTH 18 0
BBX 15 23 1 0
BITMAP
00C0
0180
0180
0300
0700
0600
0C00
0C00
19C0
3FF0
3838
701C
600C
C006
C006
C006
C006
C006
600C
701C
3838
1FF0
07C0
ENDCHAR

STARTCHAR seven
ENCODING 55
SWIDTH 580 0
DWIDTH 18 0
BBX 13 23 2 0
BITMAP
FFF8
FFF8
C018
C038
C030
C030
0060
0060
00C0
00C0
01C0
0180
0180
0300
0300
0600
0600
0E00
0C00
0C00
1800
1800
3000
ENDCHAR

STARTCHAR eight
ENCODING 56
SWIDTH 580 0
DWIDTH 18 0
BBX 14 23 2 0
BITMAP
0780
1FE0
3870
3030
6018
6018
6018
3030
3860
0FC0
1FE0
3870
6018
601C
C00C
C00C
C00C
C00C
E01C
6018
3870
1FE0
0780
ENDCHAR

STARTCHAR nine
ENCODING 57
SWIDTH 580 0
DWIDTH 18 0
BBX 15 23 1 0
BITMAP
07C0
1FF0
3838
701C
600C
C006
C006
C006
C006
C006
C006
600C
701C
3838
1FF8
0730
0060
00E0
00C0
0180
0380
0300
0600
ENDCHAR

STARTCHAR colon
ENCODING 58
SWIDTH 300 0
DWIDTH 9 0
BBX 2 15 4 0
BITMAP
C0
C0
C0
00
00
00
00
00
00
00
00
00
C0
C0
C0
ENDCHAR

STARTCHAR semicolon
ENCODING 59
SWIDTH 300 0
DWIDTH 9 0
BBX 4 18 2 -3
BITMAP
30
30
30
00
00
00
00
00
00
00
00
00
30
20
60
60
40
C0
ENDCHAR

STARTCHAR less
ENCODING 60
SWIDTH 660 0
DWIDTH 21 0
BBX 17 17 2 3
BITMAP
000180
000780
001E00
007800
01E000
078000
1E0000
780000
E00000
F00000
3C0000
0F8000
03E000
007800
001E00
000780
000180
ENDCHAR

STARTCHAR equal
ENCODING 61
SWIDTH 660 0
DWIDTH 21 0
BBX 15 7 2 8
BITMAP
FFFE
FFFE
0000
0000
0000
FFFE
FFFE
ENDCHAR

STARTCHAR greater
ENCODING 62
SWIDTH 660 0
DWIDTH 21 0
BBX 17 17 1 3
BITMAP
C00000
F00000
3C0000
0F0000
03C000
00F000
003C00
000F00
000380
000780
001E00
007800
01E000
078000
1E0000
780000
E00000
ENDCHAR

STARTCHAR question
ENCODING 63
SWIDTH 520 0
DWIDTH 16 0
BBX 14 23 1 0
BITMAP
0F80
1FE0
3870
7038
6018
C00C
C00C
000C
000C
0018
0038
0070
00E0
00C0
0180
0380
0300
0300
0000
0000
0300
0300
0300
ENDCHAR

STARTCHAR at
ENCODING 64
SWIDTH 900 0
DWIDTH 29 0
BBX 23 23 3 0
BITMAP
007F00
01FFC0
0780F0
0E0038
18000C
303E0C
606346
60C1C6
C18186
C18186
C30186
C30106
C30106
C30304
C3030C
C30318
618F30
60F9E0
300004
1C0018
0F0070
03FFE0
00FF00
ENDCHAR

STARTCHAR A
ENCODING 65
SWIDTH 820 0
DWIDTH 26 0
BBX 25 23 0 0
BITMAP
00FC0000
00FC0000
001E0000
00360000
00360000
00630000
00630000
00618000
00C18000
00C18000
0180C000
0180C000
0180E000
03006000
03FFF000
07FFF000
06003000
0E003800
0C001800
0C001C00
18000C00
FF007F80
FF007F80
ENDCHAR

STARTCHAR B
ENCODING 66
SWIDTH 580 0
DWIDTH 18 0
BBX 16 23 1 0
BITMAP
FFF0
FFF8
181C
180E
1806
1806
1806
1806
180C
181C
1FF8
1FFC
180E
1807
1803
1803
1803
1803
1803
1806
180E
FFFC
FFF8
ENDCHAR

STARTCHAR C
ENCODING 67
SWIDTH 740 0
DWIDTH 23 0
BBX 22 23 1 0
BITMAP
00FE18
03FF98
0F03D8
1C00F8
380038
300018
600000
600000
C00000
C00000
C00000
C00000
C00000
C00000
E00000
600000
600000
30001C
380038
1C0070
0F01E0
03FF80
00FE00
ENDCHAR

STARTCHAR D
ENCODING 68
SWIDTH 720 0
DWIDTH 23 0
BBX 20 23 1 0
BITMAP
FFF800
FFFE00
180F00
180380
1801C0
1800E0
180060
180070
180030
180030
180030
180030
180030
180030
180030
180070
180060
1800E0
1801C0
180380
180F00
FFFE00
FFF800
ENDCHAR

STARTCHAR E
ENCODING 69
SWIDTH 560 0
DWIDTH 18 0
BBX 15 23 1 0
BITMAP
FFFE
FFFE
1806
1806
1806
1806
1800
1800
1800
1800
1FF8
1FF8
1800
1800
1800
1800
1800
1806
1806
1806
1806
FFFE
FFFE
ENDCHAR

STARTCHAR F
ENCODING 70
SWIDTH 560 0
DWIDTH 18 0
BBX 15 23 1 0
BITMAP
FFFE
FFFE
1806
1806
1806
1806
1800
1800
1800
1800
1FF8
1FF8
1800
1800
1800
1800
1800
1800
1800
1800
1800
FF00
FF00
ENDCHAR

STARTCHAR G
ENCODING 71
SWIDTH 780 0
DWIDTH 25 0
BBX 22 23 1 0
BITMAP
00FC18
03FF98
0F03D8
1C00F8
380038
300018
600000
600000
C00000
C00000
C00000
C00000
C07FFC
C07FFC
60000C
60001C
60001C
30003C
38006C
1C00EC
0F03CC
03FF0C
00FC0C
ENDCHAR

STARTCHAR H
ENCODING 72
SWIDTH 720 0
DWIDTH 23 0
BBX 21 23 1 0
BITMAP
FF07F8
FF07F8
1800C0
1800C0
1800C0
1800C0
1800C0
1800C0
1800C0
1800C0
1FFFC0
1FFFC0
1800C0
1800C0
1800C0
1800C0
1800C0
1800C0
1800C0
1800C0
1800C0
FF07F8
FF07F8
ENDCHAR

STARTCHAR I
ENCODING 73
SWIDTH 300 0
DWIDTH 10 0
BBX 8 23 1 0
BITMAP
FF
FF
18
18
18
18
18
18
18
18
18
18
18
18
18
18
18
18
18
18
18
FF
FF
ENDCHAR

STARTCHAR J
ENCODING 74
SWIDTH 520 0
DWIDTH 16 0
BBX 15 23 0 0
BITMAP
01FE
01FE
0030
0030
0030
0030
0030
0030
0030
0030
0030
0030
0030
0030
0030
0030
0030
C030
E070
6060
70E0
3FC0
0F80
ENDCHAR

STARTCHAR K
ENCODING 75
SWIDTH 700 0
DWIDTH 22 0
BBX 20 23 1 0
BITMAP
FF0FF0
FF0FF0
180300
180600
180C00
181800
183000
186000
18C000
198000
1B0000
1F0000
1B8000
19C000
18E000
187000
183800
181C00
180E00
180700
180380
FF0FF0
FF0FF0
ENDCHAR

STARTCHAR L
ENCODING 76
SWIDTH 520 0
DWIDTH 16 0
BBX 14 23 1 0
BITMAP
FF00
FF00
1800
1800
1800
1800
1800
1800
1800
1800
1800
1800
1800
1800
1800
1800
1800
180C
180C
180C
180C
FFFC
FFFC
ENDCHAR

STARTCHAR M
ENCODING 77
SWIDTH 980 0
DWIDTH 31 0
BBX 29 23 0 0
BITMAP
FC0001F8
FE0003F8
1E0003C0
1F0007C0
1B0006C0
1B0006C0
19800CC0
19800CC0
19C018C0
18C018C0
18C030C0
186030C0
186070C0
187060C0
183060C0
1838C0C0
1818C0C0
181D80C0
180D80C0
180F00C0
180700C0
FF0207F8
FF0207F8
ENDCHAR

STARTCHAR N
ENCODING 78
SWIDTH 800 0
DWIDTH 25 0
BBX 23 23 1 0
BITMAP
F801FE
FC01FE
1E0030
1E0030
1B0030
1B8030
198030
18C030
18E030
186030
183030
183830
181830
180C30
180E30
180630
180330
1803B0
1801B0
1800F0
1800F0
FF0070
FF0030
ENDCHAR

STARTCHAR O
ENCODING 79
SWIDTH 800 0
DWIDTH 25 0
BBX 23 23 1 0
BITMAP
00FE00
03FF80
0F83E0
1C0070
380038
300018
60000C
60000C
E0000E
C00006
C00006
C00006
C00006
C00006
E0000E
60000C
60000C
300018
380038
1C0070
0F83E0
03FF80
00FE00
ENDCHAR

STARTCHAR P
ENCODING 80
SWIDTH 580 0
DWIDTH 18 0
BBX 16 23 1 0
BITMAP
FFF0
FFFC
181E
1806
1807
1803
1803
1803
1803
1807
1806
180E
1FFC
1FF0
1800
1800
1800
1800
1800
1800
1800
FF00
FF00
ENDCHAR

STARTCHAR Q
ENCODING 81
SWIDTH 860 0
DWIDTH 27 0
BBX 25 23 1 0
BITMAP
00FE0000
03FF8000
0F83E000
1C007000
38003800
30001800
60000C00
60000C00
C0000C00
C0000600
C0000600
C0000600
C0000600
CFC00600
FFF80C00
701C0C00
60071C00
30039800
3801F800
1C00F180
0F83F980
03FF9F80
00FE0780
ENDCHAR

STARTCHAR R
ENCODING 82
SWIDTH 640 0
DWIDTH 20 0
BBX 18 23 1 0
BITMAP
FFF000
FFFC00
181E00
180700
180300
180380
180180
180180
180180
180380
180300
180700
181E00
19F800
18E000
186000
183000
183800
181800
180C00
180E00
FF07C0
FF03C0
ENDCHAR

STARTCHAR S
ENCODING 83
SWIDTH 500 0
DWIDTH 16 0
BBX 13 23 1 0
BITMAP
0F30
3FF0
7070
E030
C030
C000
C000
C000
6000
7000
3F00
0FC0
00E0
0030
0038
0018
0018
C018
C018
E030
F070
DFE0
CF80
ENDCHAR

STARTCHAR T
ENCODING 84
SWIDTH 540 0
DWIDTH 17 0
BBX 15 23 1 0
BITMAP
FFFE
FFFE
C306
C306
C306
C306
0300
0300
0300
0300
0300
0300
0300
0300
0300
0300
0300
0300
0300
0300
0300
0FE0
0FE0
ENDCHAR

STARTCHAR U
ENCODING 85
SWIDTH 700 0
DWIDTH 22 0
BBX 20 23 1 0
BITMAP
FF0FF0
FF0FF0
180180
180180
180180
180180
180180
180180
180180
180180
180180
180180
180180
180180
180180
180180
180180
1C0380
0C0300
0E0700
070E00
03FC00
00F000
ENDCHAR

STARTCHAR V
ENCODING 86
SWIDTH 780 0
DWIDTH 25 0
BBX 24 23 1 0
BITMAP
FF00FF
FF00FF
180018
1C0038
0C0030
0C0030
060060
060060
070060
0300C0
0300C0
038180
018180
018180
00C300
00C300
00E700
006600
006600
007C00
003C00
003C00
001800
ENDCHAR

STARTCHAR W
ENCODING 87
SWIDTH 1040 0
DWIDTH 33 0
BBX 31 23 1 0
BITMAP
FF0101FE
FF0381FE
18038030
18038030
0C03C020
0C06C060
0C06C060
0C06C060
060460C0
060C60C0
060C60C0
060C60C0
03083180
03183180
03183180
03981180
01901B00
01B01B00
01B01B00
00F00F00
00E00E00
00E00E00
00E00E00
ENDCHAR

STARTCHAR X
ENCODING 88
SWIDTH 740 0
DWIDTH 23 0
BBX 21 23 1 0
BITMAP
7F07F0
7F07F0
0C01C0
0E0180
060300
030600
038600
018C00
00D800
00F800
007000
007000
007800
00D800
018C00
018E00
030600
060300
060380
0C0180
1800C0
FF07F8
FF07F8
ENDCHAR

STARTCHAR Y
ENCODING 89
SWIDTH 680 0
DWIDTH 22 0
BBX 20 23 1 0
BITMAP
FE0FF0
FE0FF0
180180
180180
0C0300
0C0300
060600
060600
030C00
030C00
019800
019800
00F000
00F000
006000
006000
006000
006000
006000
006000
006000
03FC00
03FC00
ENDCHAR

STARTCHAR Z
ENCODING 90
SWIDTH 520 0
DWIDTH 17 0
BBX 14 23 2 0
BITMAP
FFF8
FFF8
C038
C030
C070
C060
00C0
00C0
0180
0380
0300
0700
0600
0C00
0C00
1800
3800
300C
700C
600C
C00C
FFFC
FFFC
ENDCHAR

STARTCHAR bracketleft
ENCODING 91
SWIDTH 300 0
DWIDTH 10 0
BBX 7 27 2 -4
BITMAP
FE
FE
C0
C0
C0
C0
C0
C0
C0
C0
C0
C0
C0
C0
C0
C0
C0
C0
C0
C0
C0
C0
C0
C0
C0
FE
FE
ENDCHAR

STARTCHAR backslash
ENCODING 92
SWIDTH 580 0
DWIDTH 19 0
BBX 11 23 3 0
BITMAP
C000
6000
6000
6000
3000
3000
1800
1800
1800
0C00
0C00
0600
0600
0600
0300
0300
0100
0180
0180
00C0
00C0
0040
0060
ENDCHAR

STARTCHAR bracketright
ENCODING 93
SWIDTH 300 0
DWIDTH 10 0
BBX 7 27 1 -4
BITMAP
FE
FE
06
06
06
06
06
06
06
06
06
06
06
06
06
06
06
06
06
06
06
06
06
06
06
FE
FE
ENDCHAR

STARTCHAR asciicircum
ENCODING 94
SWIDTH 660 0
DWIDTH 21 0
BBX 16 17 2 6
BITMAP
0180
0180
03C0
0240
0660
0420
0C30
0C30
1818
1818
1008
300C
2004
6006
6006
C003
C003
ENDCHAR

STARTCHAR underscore
ENCODING 95
SWIDTH 500 0
DWIDTH 16 0
BBX 16 2 0 -4
BITMAP
FFFF
FFFF
ENDCHAR

STARTCHAR quoteleft
ENCODING 96
SWIDTH 200 0
DWIDTH 6 0
BBX 4 6 1 17
BITMAP
C0
40
60
60
20
30
ENDCHAR

STARTCHAR a
ENCODING 97
SWIDTH 660 0
DWIDTH 21 0
BBX 20 17 0 0
BITMAP
03E1F0
0FF9F0
3C1D80
300780
600380
600380
C00180
C00180
C00180
C00180
C00180
600380
600380
300780
3C1D80
0FF9F0
03E1F0
ENDCHAR

STARTCHAR b
ENCODING 98
SWIDTH 660 0
DWIDTH 21 0
BBX 20 23 0 0
BITMAP
F80000
F80000
180000
180000
180000
180000
187C00
19FF00
1B83C0
1E00C0
1C0060
1C0060
180030
180030
180030
180030
180030
1C0060
1C0060
1E00C0
1B83C0
F9FF00
F87C00
ENDCHAR

STARTCHAR c
ENCODING 99
SWIDTH 560 0
DWIDTH 18 0
BBX 17 17 0 0
BITMAP
03E300
0FFB00
1C1F00
300700
600300
600000
C00000
C00000
C00000
C00000
C00000
600380
600300
300600
1C1C00
0FF800
03E000
ENDCHAR

STARTCHAR d
ENCODING 100
SWIDTH 660 0
DWIDTH 21 0
BBX 20 23 0 0
BITMAP
000F80
000F80
000180
000180
000180
000180
03E180
0FF980
1C1D80
300780
600380
600380
C00180
C00180
C00180
C00180
C00180
600380
600380
300780
3C1D80
0FF9F0
03E1F0
ENDCHAR

STARTCHAR e
ENCODING 101
SWIDTH 580 0
DWIDTH 18 0
BBX 17 17 0 0
BITMAP
03E000
0FF800
1C1C00
300600
600300
600300
C00100
C00180
FFFF80
FFFF80
C00000
C00000
600700
300600
3C1C00
0FF800
03E000
ENDCHAR

STARTCHAR f
ENCODING 102
SWIDTH 300 0
DWIDTH 10 0
BBX 8 23 0 0
BITMAP
07
0F
1C
18
18
18
FF
FF
18
18
18
18
18
18
18
18
18
18
18
18
18
FF
FF
ENDCHAR

STARTCHAR g
ENCODING 103
SWIDTH 660 0
DWIDTH 21 0
BBX 20 24 0 -7
BITMAP
03E1F0
0FF9F0
1C1D80
300780
600380
600380
C00180
C00180
C00180
C00180
C00180
600380
600380
300780
3C1D80
0FF980
03E180
000180
000300
700300
380600
1C1C00
0FF800
03E000
ENDCHAR

STARTCHAR h
ENCODING 104
SWIDTH 640 0
DWIDTH 20 0
BBX 20 23 0 0
BITMAP
F80000
F80000
180000
180000
180000
180000
187800
19FE00
1B8F00
1E0300
1C0380
1C0180
180180
180180
180180
180180
180180
180180
180180
180180
180180
FF0FF0
FF0FF0
ENDCHAR

STARTCHAR i
ENCODING 105
SWIDTH 260 0
DWIDTH 8 0
BBX 8 23 0 0
BITMAP
18
18
18
00
00
00
F8
F8
18
18
18
18
18
18
18
18
18
18
18
18
18
FF
FF
ENDCHAR

STARTCHAR j
ENCODING 106
SWIDTH 240 0
DWIDTH 8 0
BBX 5 29 0 -6
BITMAP
18
18
18
00
00
00
F8
F8
18
18
18
18
18
18
18
18
18
18
18
18
18
18
18
18
18
18
30
F0
C0
ENDCHAR

STARTCHAR k
ENCODING 107
SWIDTH 580 0
DWIDTH 19 0
BBX 17 23 0 0
BITMAP
F80000
F80000
180000
180000
180000
180000
18FF00
18FF00
183800
187000
18E000
19C000
1B8000
1F0000
1F0000
1B8000
19C000
18E000
187000
183800
181C00
FF7F80
FF7F80
ENDCHAR

STARTCHAR l
ENCODING 108
SWIDTH 280 0
DWIDTH 9 0
BBX 8 23 0 0
BITMAP
F8
F8
18
18
18
18
18
18
18
18
18
18
18
18
18
18
18
18
18
18
18
FF
FF
ENDCHAR

STARTCHAR m
ENCODING 109
SWIDTH 980 0
DWIDTH 31 0
BBX 30 17 0 0
BITMAP
F8F01E00
FBFC7F80
1E0EC1C0
1C0780E0
1C0700E0
18030060
18030060
18030060
18030060
18030060
18030060
18030060
18030060
18030060
18030060
FF1FE3FC
FF1FE3FC
ENDCHAR

STARTCHAR n
ENCODING 110
SWIDTH 660 0
DWIDTH 21 0
BBX 20 17 0 0
BITMAP
F8F800
FBFE00
1B0700
1C0300
1C0380
180180
180180
180180
180180
180180
180180
180180
180180
180180
180180
FF0FF0
FF0FF0
ENDCHAR

STARTCHAR o
ENCODING 111
SWIDTH 580 0
DWIDTH 19 0
BBX 17 17 0 0
BITMAP
03E000
0FF800
1C1C00
300600
600300
600300
C00180
C00180
C00180
C00180
C00180
600300
600300
300600
1C1C00
0FF800
03E000
ENDCHAR

STARTCHAR p
ENCODING 112
SWIDTH 660 0
DWIDTH 21 0
BBX 20 23 0 -6
BITMAP
F87C00
F9FF00
1B83C0
1E00C0
1C0060
1C0060
180030
180030
180030
180030
180030
1C0060
1C0060
1E00C0
1B8380
19FF00
187C00
180000
180000
180000
180000
FF0000
FF0000
ENDCHAR

STARTCHAR q
ENCODING 113
SWIDTH 660 0
DWIDTH 21 0
BBX 20 23 0 -6
BITMAP
03E1F0
0FF9F0
3C1D80
300780
600380
600380
C00180
C00180
C00180
C00180
C00180
600380
600380
300780
3C1D80
0FF980
03E180
000180
000180
000180
000180
000FF0
000FF0
ENDCHAR

STARTCHAR r
ENCODING 114
SWIDTH 360 0
DWIDTH 11 0
BBX 10 17 0 0
BITMAP
F8C0
FBC0
1F00
1C00
1C00
1800
1800
1800
1800
1800
1800
1800
1800
1800
1800
FF00
FF00
ENDCHAR

STARTCHAR s
ENCODING 115
SWIDTH 420 0
DWIDTH 13 0
BBX 11 17 1 0
BITMAP
1EC0
7FC0
E0C0
C0C0
C000
C000
E000
7C00
1F80
03C0
00E0
0060
C060
C060
E0E0
FFC0
CF00
ENDCHAR

STARTCHAR t
ENCODING 116
SWIDTH 320 0
DWIDTH 10 0
BBX 9 23 0 0
BITMAP
1800
1800
1800
1800
1800
1800
FF80
FF80
1800
1800
1800
1800
1800
1800
1800
1800
1800
1800
1800
1800
1800
1F80
1F80
ENDCHAR

STARTCHAR u
ENCODING 117
SWIDTH 640 0
DWIDTH 20 0
BBX 20 17 0 0
BITMAP
F80F80
F80F80
180180
180180
180180
180180
180180
180180
180180
180180
180180
180380
1C0380
0C0780
0E0D80
07F9F0
01F1F0
ENDCHAR

STARTCHAR v
ENCODING 118
SWIDTH 640 0
DWIDTH 20 0
BBX 19 17 0 0
BITMAP
FE0FE0
FE0FE0
180300
180300
0C0600
0C0600
0C0600
060C00
060C00
031800
031800
031800
01B000
01B000
00E000
00E000
00E000
ENDCHAR

STARTCHAR w
ENCODING 119
SWIDTH 900 0
DWIDTH 29 0
BBX 27 17 0 0
BITMAP
FE000FE0
FE000FE0
18040300
180E0300
180E0300
0C0E0600
0C1B0600
0C1B0400
06110C00
06318C00
06318800
03219800
0360D800
0160D000
01C07000
01C07000
01C07000
ENDCHAR

STARTCHAR x
ENCODING 120
SWIDTH 600 0
DWIDTH 19 0
BBX 18 17 0 0
BITMAP
7E1F80
7E1F80
180600
0C0C00
061800
073800
03F000
01E000
01E000
03F000
033000
061800
0C0C00
180600
380700
FE1FC0
FE1FC0
ENDCHAR

STARTCHAR y
ENCODING 121
SWIDTH 640 0
DWIDTH 20 0
BBX 19 23 0 -6
BITMAP
FE0FE0
FE0FE0
180300
180300
1C0600
0C0600
0C0600
060C00
060C00
061800
031800
031800
01B000
01B000
01E000
00E000
00C000
00C000
00C000
018000
018000
0FE000
0FE000
ENDCHAR

STARTCHAR z
ENCODING 122
SWIDTH 420 0
DWIDTH 13 0
BBX 12 17 1 0
BITMAP
FFF0
FFF0
C060
C0C0
C1C0
0180
0300
0600
0E00
0C00
1800
3800
3030
6030
E030
FFF0
FFF0
ENDCHAR

STARTCHAR braceleft
ENCODING 123
SWIDTH 300 0
DWIDTH 10 0
BBX 6 29 3 -5
BITMAP
04
18
10
30
30
30
30
30
30
30
30
30
30
60
C0
60
30
30
30
30
30
30
30
30
30
30
10
08
04
ENDCHAR

STARTCHAR bar
ENCODING 124
SWIDTH 660 0
DWIDTH 21 0
BBX 2 23 9 0
BITMAP
C0
C0
C0
C0
C0
C0
C0
C0
C0
C0
C0
C0
C0
C0
C0
C0
C0
C0
C0
C0
C0
C0
C0
ENDCHAR

STARTCHAR braceright
ENCODING 125
SWIDTH 300 0
DWIDTH 10 0
BBX 6 29 1 -5
BITMAP
80
60
20
30
30
30
30
30
30
30
30
30
30
18
0C
18
30
30
30
30
30
30
30
30
30
30
20
60
80
ENDCHAR

STARTCHAR asciitilde
ENCODING 126
SWIDTH 660 0
DWIDTH 21 0
BBX 17 5 2 8
BITMAP
1E0100
3F8380
63FF00
C07C00
400000
ENDCHAR

STARTCHAR space
ENCODING 160
SWIDTH 300 0
DWIDTH 10 0
BBX 1 1 0 0
BITMAP
00
ENDCHAR

STARTCHAR exclamdown
ENCODING 161
SWIDTH 140 0
DWIDTH 4 0
BBX 2 23 1 -6
BITMAP
C0
C0
C0
00
00
C0
C0
C0
C0
C0
C0
C0
C0
C0
C0
C0
C0
C0
C0
C0
C0
C0
C0
ENDCHAR

STARTCHAR cent
ENCODING 162
SWIDTH 580 0
DWIDTH 19 0
BBX 14 20 2 1
BITMAP
0300
0300
0300
0FC8
1FF8
3B78
6318
6300
C300
C300
C300
C300
6300
631C
3B70
1FE0
0FC0
0300
0300
0300
ENDCHAR

STARTCHAR sterling
ENCODING 163
SWIDTH 640 0
DWIDTH 19 0
BBX 18 23 0 0
BITMAP
01E300
07FB00
0E1F00
1C0700
180300
300300
300000
300000
300000
300000
180000
FFF800
FFF800
060000
030000
038080
0180C0
0180C0
0180C0
018180
030380
3FFE00
3FFC00
ENDCHAR

STARTCHAR EuroSign
ENCODING 164
SWIDTH 594 0
DWIDTH 20 0
BBX 18 20 0 0
BITMAP
01F880
020E80
0C0380
080180
100180
100080
200000
200000
FFF800
200000
200000
FFF800
200000
200000
300000
100040
0800C0
0C0180
030700
00FC00
ENDCHAR

STARTCHAR yen
ENCODING 165
SWIDTH 740 0
DWIDTH 19 0
BBX 17 23 1 0
BITMAP
FE1F80
FE1F80
180600
180600
0C0C00
0C0C00
040800
061800
061800
033000
7F3F80
012000
01E000
7FFF80
00C000
00C000
00C000
00C000
00C000
00C000
00C000
03F000
03F000
ENDCHAR

STARTCHAR Scaron
ENCODING 166
SWIDTH 500 0
DWIDTH 16 0
BBX 13 30 1 0
BITMAP
7038
3870
1CE0
0780
0300
0000
0000
0F30
3FF0
7070
E030
C030
C000
C000
C000
6000
7000
3F00
0FC0
00E0
0030
0038
0018
0018
C018
C018
E030
F070
DFE0
CF80
ENDCHAR

STARTCHAR section
ENCODING 167
SWIDTH 440 0
DWIDTH 14 0
BBX 11 27 1 -4
BITMAP
0F00
3FC0
70E0
6060
6000
6000
7000
3800
1E00
1F80
31C0
60E0
C060
C060
C060
E0C0
7980
1F00
0780
01C0
00E0
0060
C060
C060
E0C0
7FC0
1F00
ENDCHAR

STARTCHAR scaron
ENCODING 168
SWIDTH 420 0
DWIDTH 13 0
BBX 12 24 1 0
BITMAP
C0E0
E1C0
7380
1E00
0C00
0000
0000
1EC0
7FC0
E0C0
C0C0
C000
C000
E000
7C00
1F80
03C0
00E0
0060
C060
C060
E0E0
FFC0
CF00
ENDCHAR

STARTCHAR copyright
ENCODING 169
SWIDTH 820 0
DWIDTH 26 0
BBX 23 23 2 0
BITMAP
00FE00
03FF80
0F01E0
1C0070
307C18
31C718
63838C
63018C
C60006
C60006
C60006
C60006
C60006
C601C6
C3018E
63838C
61C70C
307C18
300018
1C0070
0F01E0
03FF80
00FE00
ENDCHAR

STARTCHAR ordfeminine
ENCODING 170
SWIDTH 420 0
DWIDTH 13 0
BBX 11 13 1 10
BITMAP
3EE0
6380
4180
C180
C180
C180
C180
4180
6380
3EE0
0000
FFE0
FFE0
ENDCHAR

STARTCHAR guillemotleft
ENCODING 171
SWIDTH 320 0
DWIDTH 10 0
BBX 8 11 1 3
BITMAP
11
22
66
44
CC
88
CC
44
66
22
11
ENDCHAR

STARTCHAR logicalnot
ENCODING 172
SWIDTH 660 0
DWIDTH 21 0
BBX 20 10 0 5
BITMAP
FFFFF0
FFFFF0
000030
000030
000030
000030
000030
000030
000030
000030
ENDCHAR

STARTCHAR hyphen
ENCODING 173
SWIDTH 300 0
DWIDTH 10 0
BBX 8 2 1 8
BITMAP
FF
FF
ENDCHAR

STARTCHAR registered
ENCODING 174
SWIDTH 820 0
DWIDTH 26 0
BBX 23 23 2 0
BITMAP
00FE00
03FF80
0F01E0
1C0070
31FE18
318798
6181CC
6180CC
C180C6
C18386
C18F06
C1FC06
C18E06
C18606
C18706
61830C
61818C
3181D8
300018
1C0070
0F01E0
03FF80
00FE00
ENDCHAR

STARTCHAR macron
ENCODING 175
SWIDTH 460 0
DWIDTH 15 0
BBX 10 2 2 20
BITMAP
FFC0
FFC0
ENDCHAR

STARTCHAR degree
ENCODING 176
SWIDTH 400 0
DWIDTH 13 0
BBX 9 9 2 14
BITMAP
3E00
6300
C180
8080
8080
8080
C180
6300
3E00
ENDCHAR

STARTCHAR plusminus
ENCODING 177
SWIDTH 660 0
DWIDTH 21 0
BBX 16 16 2 2
BITMAP
0180
0180
0180
0180
0180
FFFF
FFFF
0180
0180
0180
0180
0180
0000
0000
FFFF
FFFF
ENDCHAR

STARTCHAR twosuperior
ENCODING 178
SWIDTH 348 0
DWIDTH 11 0
BBX 9 14 1 9
BITMAP
3E00
6300
C180
8180
8180
0380
0300
0600
0C00
1800
3000
6080
FF80
FF80
ENDCHAR

STARTCHAR threesuperior
ENCODING 179
SWIDTH 348 0
DWIDTH 11 0
BBX 9 14 1 9
BITMAP
3E00
6700
4300
0300
0300
0600
1F00
0380
0180
0180
8180
C180
6300
3E00
ENDCHAR

STARTCHAR Zcaron
ENCODING 180
SWIDTH 520 0
DWIDTH 17 0
BBX 14 30 2 0
BITMAP
7038
3870
1CE0
0780
0300
0000
0000
FFF8
FFF8
C038
C030
C070
C060
00C0
00C0
0180
0380
0300
0700
0600
0C00
0C00
1800
3800
300C
700C
600C
C00C
FFFC
FFFC
ENDCHAR

STARTCHAR mu
ENCODING 181
SWIDTH 640 0
DWIDTH 20 0
BBX 20 23 0 -6
BITMAP
F80F80
F80F80
180180
180180
180180
180180
180180
180180
180180
180180
180180
180180
1C0380
1C0380
1E0D80
1FF9F0
19F1F0
180000
180000
180000
180000
180000
180000
ENDCHAR

STARTCHAR paragraph
ENCODING 182
SWIDTH 500 0
DWIDTH 16 0
BBX 14 27 1 -4
BITMAP
1FFC
3FFC
7E60
FE60
FE60
FE60
FE60
FE60
7E60
7E60
3E60
0660
0660
0660
0660
0660
0660
0660
0660
0660
0660
0660
0660
0660
0660
0660
0660
ENDCHAR

STARTCHAR periodcentered
ENCODING 183
SWIDTH 300 0
DWIDTH 10 0
BBX 2 3 4 10
BITMAP
C0
C0
C0
ENDCHAR

STARTCHAR zcaron
ENCODING 184
SWIDTH 420 0
DWIDTH 13 0
BBX 12 24 1 0
BITMAP
E070
70E0
39C0
0F00
0600
0000
0000
FFF0
FFF0
C060
C0C0
C1C0
0180
0300
0600
0E00
0C00
1800
3800
3030
6030
E030
FFF0
FFF0
ENDCHAR

STARTCHAR onesuperior
ENCODING 185
SWIDTH 348 0
DWIDTH 11 0
BBX 6 14 2 9
BITMAP
F0
30
30
30
30
30
30
30
30
30
30
30
30
FC
ENDCHAR

STARTCHAR ordmasculine
ENCODING 186
SWIDTH 340 0
DWIDTH 11 0
BBX 9 13 1 10
BITMAP
3E00
6300
C180
C180
C180
C180
C180
C180
6300
3E00
0000
FF80
FF80
ENDCHAR

STARTCHAR guillemotright
ENCODING 187
SWIDTH 320 0
DWIDTH 10 0
BBX 8 11 1 3
BITMAP
88
44
66
22
33
11
33
22
66
44
88
ENDCHAR

STARTCHAR Ligature_OE
ENCODING 188
SWIDTH 1120 0
DWIDTH 36 0
BBX 31 23 1 0
BITMAP
00FE0FFE
07FF8FFE
0F03CC02
1C00EC02
38007C02
70003C02
60001C00
60001C00
C0000C00
C0000C00
C0000FFE
C0000FFE
C0000C00
C0000C00
E0001C00
60001C00
70003C00
30003C02
38006C02
1C00EC02
0F03CC02
03FF0FFE
00FC0FFE
ENDCHAR

STARTCHAR Ligature_oe
ENCODING 189
SWIDTH 1060 0
DWIDTH 34 0
BBX 32 17 0 0
BITMAP
03E007C0
0FF81FF0
1C1C383C
3006600C
6003C006
6003C006
C0018003
C001FFFF
C001FFFF
C0018000
C0018000
6003C000
6003C006
3006600C
1C1C3838
0FF81FF0
03E007C0
ENDCHAR

STARTCHAR Ydiaeresis
ENCODING 190
SWIDTH 680 0
DWIDTH 22 0
BBX 20 29 1 0
BITMAP
019800
019800
019800
019800
000000
000000
FE0FF0
FE0FF0
180180
180180
0C0300
0C0300
060600
060600
030C00
030C00
019800
019800
00F000
00F000
006000
006000
006000
006000
006000
006000
006000
03FC00
03FC00
ENDCHAR

STARTCHAR questiondown
ENCODING 191
SWIDTH 520 0
DWIDTH 16 0
BBX 14 24 1 -7
BITMAP
0300
0300
0300
0000
0000
0100
0300
0300
0700
0600
0C00
1C00
3800
7000
E000
C000
C000
C00C
C00C
E018
7038
3870
1FE0
0FC0
ENDCHAR

STARTCHAR Agrave
ENCODING 192
SWIDTH 820 0
DWIDTH 26 0
BBX 25 30 0 0
BITMAP
01800000
01E00000
00F00000
003C0000
000E0000
00020000
00000000
00FC0000
00FC0000
001E0000
00360000
00360000
00630000
00630000
00618000
00C18000
00C18000
0180C000
0180C000
0180E000
03006000
03FFF000
07FFF000
06003000
0E003800
0C001800
0C001C00
18000C00
FF007F80
FF007F80
ENDCHAR

STARTCHAR Aacute
ENCODING 193
SWIDTH 820 0
DWIDTH 26 0
BBX 25 30 0 0
BITMAP
00018000
00078000
000F0000
003C0000
00700000
00400000
00000000
00FC0000
00FC0000
001E0000
00360000
00360000
00630000
00630000
00618000
00C18000
00C18000
0180C000
0180C000
0180E000
03006000
03FFF000
07FFF000
06003000
0E003800
0C001800
0C001C00
18000C00
FF007F80
FF007F80
ENDCHAR

STARTCHAR Acircumflex
ENCODING 194
SWIDTH 820 0
DWIDTH 26 0
BBX 25 30 0 0
BITMAP
00180000
003C0000
00E70000
01C38000
0381C000
00000000
00000000
00FC0000
00FC0000
001E0000
00360000
00360000
00630000
00630000
00618000
00C18000
00C18000
0180C000
0180C000
0180E000
03006000
03FFF000
07FFF000
06003000
0E003800
0C001800
0C001C00
18000C00
FF007F80
FF007F80
ENDCHAR

STARTCHAR Atilde
ENCODING 195
SWIDTH 820 0
DWIDTH 26 0
BBX 25 28 0 0
BITMAP
00F18000
01FF8000
018F0000
00000000
00000000
00FC0000
00FC0000
001E0000
00360000
00360000
00630000
00630000
00618000
00C18000
00C18000
0180C000
0180C000
0180E000
03006000
03FFF000
07FFF000
06003000
0E003800
0C001800
0C001C00
18000C00
FF007F80
FF007F80
ENDCHAR

STARTCHAR Adieresis
ENCODING 196
SWIDTH 820 0
DWIDTH 26 0
BBX 25 29 0 0
BITMAP
00660000
00660000
00660000
00660000
00000000
00000000
00FC0000
00FC0000
001E0000
00360000
00360000
00630000
00630000
00618000
00C18000
00C18000
0180C000
0180C000
0180E000
03006000
03FFF000
07FFF000
06003000
0E003800
0C001800
0C001C00
18000C00
FF007F80
FF007F80
ENDCHAR

STARTCHAR Aring
ENCODING 197
SWIDTH 820 0
DWIDTH 26 0
BBX 25 30 0 0
BITMAP
003C0000
00660000
00420000
00420000
00660000
003C0000
00000000
00FC0000
00FC0000
001E0000
00360000
00360000
00630000
00630000
00618000
00C18000
00C18000
0180C000
0180C000
0180E000
03006000
03FFF000
07FFF000
06003000
0E003800
0C001800
0C001C00
18000C00
FF007F80
FF007F80
ENDCHAR

STARTCHAR AE
ENCODING 198
SWIDTH 1000 0
DWIDTH 32 0
BBX 29 23 0 0
BITMAP
000FFFF8
000FFFF8
0001E018
00036018
00026018
00066018
000C6000
000C6000
00186000
00306000
00307FE0
00607FE0
00606000
00C06000
01FFE000
01FFE000
03006000
06006018
06006018
0C006018
18006018
FF03FFF8
FF03FFF8
ENDCHAR

STARTCHAR Ccedilla
ENCODING 199
SWIDTH 740 0
DWIDTH 23 0
BBX 22 30 1 -7
BITMAP
00FE18
03FF98
0F03F8
1C0078
380038
300018
600000
600000
C00000
C00000
C00000
C00000
C00000
C00000
E00000
600000
600000
30001C
380038
1C0070
0F03E0
03FF80
00FE00
003000
002000
007800
004C00
000400
00CC00
007800
ENDCHAR

STARTCHAR Egrave
ENCODING 200
SWIDTH 560 0
DWIDTH 18 0
BBX 15 30 1 0
BITMAP
1800
1E00
0F00
03C0
00E0
0020
0000
FFFE
FFFE
1806
1806
1806
1806
1800
1800
1800
1800
1FF8
1FF8
1800
1800
1800
1800
1800
1806
1806
1806
1806
FFFE
FFFE
ENDCHAR

STARTCHAR Eacute
ENCODING 201
SWIDTH 560 0
DWIDTH 18 0
BBX 15 30 1 0
BITMAP
0018
0078
00F0
03C0
0700
0400
0000
FFFE
FFFE
1806
1806
1806
1806
1800
1800
1800
1800
1FF8
1FF8
1800
1800
1800
1800
1800
1806
1806
1806
1806
FFFE
FFFE
ENDCHAR

STARTCHAR Ecircumflex
ENCODING 202
SWIDTH 560 0
DWIDTH 18 0
BBX 15 30 1 0
BITMAP
0180
03C0
0E70
1C38
381C
0000
0000
FFFE
FFFE
1806
1806
1806
1806
1800
1800
1800
1800
1FF8
1FF8
1800
1800
1800
1800
1800
1806
1806
1806
1806
FFFE
FFFE
ENDCHAR

STARTCHAR Edieresis
ENCODING 203
SWIDTH 560 0
DWIDTH 18 0
BBX 15 29 1 0
BITMAP
0660
0660
0660
0660
0000
0000
FFFE
FFFE
1806
1806
1806
1806
1800
1800
1800
1800
1FF8
1FF8
1800
1800
1800
1800
1800
1806
1806
1806
1806
FFFE
FFFE
ENDCHAR

STARTCHAR Igrave
ENCODING 204
SWIDTH 300 0
DWIDTH 10 0
BBX 9 30 0 0
BITMAP
C000
F000
7800
1E00
0700
0100
0000
7F80
7F80
0C00
0C00
0C00
0C00
0C00
0C00
0C00
0C00
0C00
0C00
0C00
0C00
0C00
0C00
0C00
0C00
0C00
0C00
0C00
7F80
7F80
ENDCHAR

STARTCHAR Iacute
ENCODING 205
SWIDTH 300 0
DWIDTH 10 0
BBX 10 30 1 0
BITMAP
00C0
03C0
0780
1E00
3800
2000
0000
FF00
FF00
1800
1800
1800
1800
1800
1800
1800
1800
1800
1800
1800
1800
1800
1800
1800
1800
1800
1800
1800
FF00
FF00
ENDCHAR

STARTCHAR Icircumflex
ENCODING 206
SWIDTH 300 0
DWIDTH 10 0
BBX 12 30 0 0
BITMAP
0600
0F00
39C0
70E0
E070
0000
0000
7F80
7F80
0C00
0C00
0C00
0C00
0C00
0C00
0C00
0C00
0C00
0C00
0C00
0C00
0C00
0C00
0C00
0C00
0C00
0C00
0C00
7F80
7F80
ENDCHAR

STARTCHAR Idieresis
ENCODING 207
SWIDTH 300 0
DWIDTH 10 0
BBX 8 29 1 0
BITMAP
66
66
66
66
00
00
FF
FF
18
18
18
18
18
18
18
18
18
18
18
18
18
18
18
18
18
18
18
FF
FF
ENDCHAR

STARTCHAR Eth
ENCODING 208
SWIDTH 720 0
DWIDTH 23 0
BBX 20 23 1 0
BITMAP
FFF800
FFFE00
180F00
180380
1801C0
1800E0
180060
180060
180030
180030
FFC030
FFC030
180030
180030
180030
180060
180060
1800C0
1801C0
180380
180F00
FFFE00
FFF800
ENDCHAR

STARTCHAR Ntilde
ENCODING 209
SWIDTH 800 0
DWIDTH 25 0
BBX 23 28 1 0
BITMAP
00F180
01FF80
018F00
000000
000000
F801FE
FC01FE
1E0030
1E0030
1B0030
1B8030
198030
18C030
18E030
186030
183030
183830
181830
180C30
180E30
180630
180330
1803B0
1801B0
1800F0
1800F0
FF0070
FF0030
ENDCHAR

STARTCHAR Ograve
ENCODING 210
SWIDTH 800 0
DWIDTH 25 0
BBX 23 30 1 0
BITMAP
018000
01E000
00F000
003C00
000E00
000200
000000
00FE00
03FF80
0F83E0
1C0070
380038
300018
60000C
60000C
E0000E
C00006
C00006
C00006
C00006
C00006
E0000E
60000C
60000C
300018
380038
1C0070
0F83E0
03FF80
00FE00
ENDCHAR

STARTCHAR Oacute
ENCODING 211
SWIDTH 800 0
DWIDTH 25 0
BBX 23 30 1 0
BITMAP
000180
000780
000F00
003C00
007000
004000
000000
00FE00
03FF80
0F83E0
1C0070
380038
300018
60000C
60000C
E0000E
C00006
C00006
C00006
C00006
C00006
E0000E
60000C
60000C
300018
380038
1C0070
0F83E0
03FF80
00FE00
ENDCHAR

STARTCHAR Ocircumflex
ENCODING 212
SWIDTH 800 0
DWIDTH 25 0
BBX 23 30 1 0
BITMAP
001800
003C00
00E700
01C380
0381C0
000000
000000
00FE00
03FF80
0F83E0
1C0070
380038
300018
60000C
60000C
E0000E
C00006
C00006
C00006
C00006
C00006
E0000E
60000C
60000C
300018
380038
1C0070
0F83E0
03FF80
00FE00
ENDCHAR

STARTCHAR Otilde
ENCODING 213
SWIDTH 800 0
DWIDTH 25 0
BBX 23 28 1 0
BITMAP
00F180
01FF80
018F00
000000
000000
00FE00
03FF80
0F83E0
1C0070
380038
300018
60000C
60000C
E0000E
C00006
C00006
C00006
C00006
C00006
E0000E
60000C
60000C
300018
380038
1C0070
0F83E0
03FF80
00FE00
ENDCHAR

STARTCHAR Odieresis
ENCODING 214
SWIDTH 800 0
DWIDTH 25 0
BBX 23 29 1 0
BITMAP
00C600
00C600
00C600
00C600
000000
000000
00FE00
03FF80
0F83E0
1C0070
380038
300018
60000C
60000C
E0000E
C00006
C00006
C00006
C00006
C00006
E0000E
60000C
60000C
300018
380038
1C0070
0F83E0
03FF80
00FE00
ENDCHAR

STARTCHAR multiply
ENCODING 215
SWIDTH 660 0
DWIDTH 21 0
BBX 14 14 3 4
BITMAP
4008
E01C
7038
3870
1CE0
0FC0
0780
0780
0FC0
1CE0
3870
7038
E01C
4008
ENDCHAR

STARTCHAR Oslash
ENCODING 216
SWIDTH 800 0
DWIDTH 26 0
BBX 22 23 2 0
BITMAP
00FC18
03FF30
0F03E0
1C00E0
3800F0
3001B0
600318
600618
C0040C
C00C0C
C0180C
C0300C
C0600C
C0400C
C0C00C
618018
630018
320030
3E0070
1C00E0
1F03C0
37FF80
60FC00
ENDCHAR

STARTCHAR Ugrave
ENCODING 217
SWIDTH 700 0
DWIDTH 22 0
BBX 20 30 1 0
BITMAP
060000
078000
03C000
00F000
003800
000800
000000
FF0FF0
FF0FF0
180180
180180
180180
180180
180180
180180
180180
180180
180180
180180
180180
180180
180180
180180
180180
1C0380
0C0300
0E0700
070E00
03FC00
00F000
ENDCHAR

STARTCHAR Uacute
ENCODING 218
SWIDTH 700 0
DWIDTH 22 0
BBX 20 30 1 0
BITMAP
000300
000F00
001E00
007800
00E000
008000
000000
FF0FF0
FF0FF0
180180
180180
180180
180180
180180
180180
180180
180180
180180
180180
180180
180180
180180
180180
180180
1C0380
0C0300
0E0700
070E00
03FC00
00F000
ENDCHAR

STARTCHAR Ucircumflex
ENCODING 219
SWIDTH 700 0
DWIDTH 22 0
BBX 20 30 1 0
BITMAP
006000
00F000
039C00
070E00
0E0700
000000
000000
FF0FF0
FF0FF0
180180
180180
180180
180180
180180
180180
180180
180180
180180
180180
180180
180180
180180
180180
180180
1C0380
0C0300
0E0700
070E00
03FC00
00F000
ENDCHAR

STARTCHAR Udieresis
ENCODING 220
SWIDTH 700 0
DWIDTH 22 0
BBX 20 29 1 0
BITMAP
030C00
030C00
030C00
030C00
000000
000000
FF0FF0
FF0FF0
180180
180180
180180
180180
180180
180180
180180
180180
180180
180180
180180
180180
180180
180180
180180
1C0380
0C0300
0E0700
070E00
03FC00
00F000
ENDCHAR

STARTCHAR Yacute
ENCODING 221
SWIDTH 680 0
DWIDTH 22 0
BBX 20 30 1 0
BITMAP
000300
000F00
001E00
007800
00E000
008000
000000
FE0FF0
FE0FF0
180180
180180
0C0300
0C0300
060600
060600
030C00
030C00
019800
019800
00F000
00F000
006000
006000
006000
006000
006000
006000
006000
03FC00
03FC00
ENDCHAR

STARTCHAR Thorn
ENCODING 222
SWIDTH 580 0
DWIDTH 19 0
BBX 16 23 1 0
BITMAP
FF00
FF00
1800
1800
1800
1FF0
1FFC
181E
1806
1803
1803
1803
1803
1803
1806
180E
1FFC
1FF0
1800
1800
1800
FF00
FF00
ENDCHAR

STARTCHAR germandbls
ENCODING 223
SWIDTH 580 0
DWIDTH 19 0
BBX 17 24 0 -1
BITMAP
01E000
07F800
0E1C00
0C0C00
180600
180600
180600
180600
180C00
181C00
18F800
18FC00
180E00
180300
180300
180180
180180
180180
180180
180380
180300
F98700
F8FE00
007800
ENDCHAR

STARTCHAR agrave
ENCODING 224
SWIDTH 660 0
DWIDTH 21 0
BBX 20 25 0 0
BITMAP
030000
03C000
01E000
007800
001C00
000400
000000
000000
03E1F0
0FF9F0
3C1D80
300780
600380
600380
C00180
C00180
C00180
C00180
C00180
600380
600380
300780
3C1D80
0FF9F0
03E1F0
ENDCHAR

STARTCHAR aacute
ENCODING 225
SWIDTH 660 0
DWIDTH 21 0
BBX 20 25 0 0
BITMAP
000300
000F00
001E00
007800
00E000
008000
000000
000000
03E1F0
0FF9F0
3C1D80
300780
600380
600380
C00180
C00180
C00180
C00180
C00180
600380
600380
300780
3C1D80
0FF9F0
03E1F0
ENDCHAR

STARTCHAR acircumflex
ENCODING 226
SWIDTH 660 0
DWIDTH 21 0
BBX 20 24 0 0
BITMAP
006000
00F000
039C00
070E00
0E0700
000000
000000
03E1F0
0FF9F0
3C1D80
300780
600380
600380
C00180
C00180
C00180
C00180
C00180
600380
600380
300780
3C1D80
0FF9F0
03E1F0
ENDCHAR

STARTCHAR atilde
ENCODING 227
SWIDTH 660 0
DWIDTH 21 0
BBX 20 22 0 0
BITMAP
03C600
07FE00
063C00
000000
000000
03E1F0
0FF9F0
3C1D80
300780
600380
600380
C00180
C00180
C00180
C00180
C00180
600380
600380
300780
3C1D80
0FF9F0
03E1F0
ENDCHAR

STARTCHAR adieresis
ENCODING 228
SWIDTH 660 0
DWIDTH 21 0
BBX 20 23 0 0
BITMAP
031800
031800
031800
031800
000000
000000
03E1F0
0FF9F0
3C1D80
300780
600380
600380
C00180
C00180
C00180
C00180
C00180
600380
600380
300780
3C1D80
0FF9F0
03E1F0
ENDCHAR

STARTCHAR aring
ENCODING 229
SWIDTH 660 0
DWIDTH 21 0
BBX 20 25 0 0
BITMAP
00F000
019800
010800
010800
019800
00F000
000000
000000
03E1F0
0FF9F0
3C1D80
300780
600380
600380
C00180
C00180
C00180
C00180
C00180
600380
600380
300780
3C1D80
0FF9F0
03E1F0
ENDCHAR

STARTCHAR ae
ENCODING 230
SWIDTH 1060 0
DWIDTH 34 0
BBX 31 17 0 0
BITMAP
03E187C0
0FF99FF0
1C1DB83C
3007E00C
6003C006
6003C006
C0018002
C001FFFE
C001FFFE
C0018000
C0018000
6003C000
6003C006
3005E00C
1C1DB838
0FF99FF0
03E187C0
ENDCHAR

STARTCHAR ccedilla
ENCODING 231
SWIDTH 560 0
DWIDTH 18 0
BBX 17 24 0 -7
BITMAP
03E300
0FFB00
1C1F00
300700
600300
600000
C00000
C00000
C00000
C00000
C00000
600380
600300
300600
1C1C00
0FF800
03E000
018000
010000
03C000
026000
002000
066000
03C000
ENDCHAR

STARTCHAR egrave
ENCODING 232
SWIDTH 580 0
DWIDTH 18 0
BBX 17 25 0 0
BITMAP
0C0000
0F0000
078000
01E000
007000
001000
000000
000000
03E000
0FF800
1C1C00
300600
600300
600300
C00100
C00180
FFFF80
FFFF80
C00000
C00000
600300
300600
380C00
0FF800
03E000
ENDCHAR

STARTCHAR eacute
ENCODING 233
SWIDTH 580 0
DWIDTH 18 0
BBX 17 25 0 0
BITMAP
000C00
003C00
007800
01E000
038000
020000
000000
000000
03E000
0FF800
1C1C00
300600
600300
600300
C00100
C00180
FFFF80
FFFF80
C00000
C00000
600300
300600
380C00
0FF800
03E000
ENDCHAR

STARTCHAR ecircumflex
ENCODING 234
SWIDTH 580 0
DWIDTH 18 0
BBX 17 24 0 0
BITMAP
018000
03C000
0E7000
1C3800
381C00
000000
000000
03E000
0FF800
1C1C00
300600
600300
600300
C00100
C00180
FFFF80
FFFF80
C00000
C00000
600300
300600
380C00
0FF800
03E000
ENDCHAR

STARTCHAR edieresis
ENCODING 235
SWIDTH 580 0
DWIDTH 18 0
BBX 17 23 0 0
BITMAP
063000
063000
063000
063000
000000
000000
03E000
0FF800
1C1C00
300600
600300
600300
C00100
C00180
FFFF80
FFFF80
C00000
C00000
600300
300600
380C00
0FF800
03E000
ENDCHAR

STARTCHAR igrave
ENCODING 236
SWIDTH 260 0
DWIDTH 8 0
BBX 10 25 -2 0
BITMAP
C000
F000
7800
1E00
0700
0100
0000
0000
3E00
3E00
0600
0600
0600
0600
0600
0600
0600
0600
0600
0600
0600
0600
0600
3FC0
3FC0
ENDCHAR

STARTCHAR iacute
ENCODING 237
SWIDTH 260 0
DWIDTH 8 0
BBX 8 25 0 0
BITMAP
03
0F
1E
78
E0
80
00
00
F8
F8
18
18
18
18
18
18
18
18
18
18
18
18
18
FF
FF
ENDCHAR

STARTCHAR icircumflex
ENCODING 238
SWIDTH 260 0
DWIDTH 8 0
BBX 12 24 -2 0
BITMAP
0600
0F00
39C0
70E0
E070
0000
0000
3E00
3E00
0600
0600
0600
0600
0600
0600
0600
0600
0600
0600
0600
0600
0600
3FC0
3FC0
ENDCHAR

STARTCHAR idieresis
ENCODING 239
SWIDTH 260 0
DWIDTH 8 0
BBX 8 23 0 0
BITMAP
C6
C6
C6
C6
00
00
F8
F8
18
18
18
18
18
18
18
18
18
18
18
18
18
FF
FF
ENDCHAR

STARTCHAR eth
ENCODING 240
SWIDTH 580 0
DWIDTH 19 0
BBX 17 23 1 0
BITMAP
3C0400
0E3E00
07F000
1F8000
F9C000
C0E000
007000
07F800
1FFC00
380E00
600300
600300
C00180
C00180
C00180
C00180
C00180
600300
600300
300600
1C1C00
0FF800
03E000
ENDCHAR

STARTCHAR ntilde
ENCODING 241
SWIDTH 660 0
DWIDTH 21 0
BBX 20 22 0 0
BITMAP
03C600
07FE00
063C00
000000
000000
F8F800
FBFE00
1B0700
1C0300
1C0300
180180
180180
180180
180180
180180
180180
180180
180180
180180
180180
FF0FF0
FF0FF0
ENDCHAR

STARTCHAR ograve
ENCODING 242
SWIDTH 580 0
DWIDTH 19 0
BBX 17 25 0 0
BITMAP
0C0000
0F0000
078000
01E000
007000
001000
000000
000000
03E000
0FF800
1C1C00
300600
600300
600300
C00180
C00180
C00180
C00180
C00180
600300
600300
300600
1C1C00
0FF800
03E000
ENDCHAR

STARTCHAR oacute
ENCODING 243
SWIDTH 580 0
DWIDTH 19 0
BBX 17 25 0 0
BITMAP
000C00
003C00
007800
01E000
038000
020000
000000
000000
03E000
0FF800
1C1C00
300600
600300
600300
C00180
C00180
C00180
C00180
C00180
600300
600300
300600
1C1C00
0FF800
03E000
ENDCHAR

STARTCHAR ocircumflex
ENCODING 244
SWIDTH 580 0
DWIDTH 19 0
BBX 17 24 0 0
BITMAP
018000
03C000
0E7000
1C3800
381C00
000000
000000
03E000
0FF800
1C1C00
300600
600300
600300
C00180
C00180
C00180
C00180
C00180
600300
600300
300600
1C1C00
0FF800
03E000
ENDCHAR

STARTCHAR otilde
ENCODING 245
SWIDTH 580 0
DWIDTH 19 0
BBX 17 22 0 0
BITMAP
078C00
0FFC00
0C7800
000000
000000
03E000
0FF800
1C1C00
300600
600300
600300
C00180
C00180
C00180
C00180
C00180
600300
600300
300600
1C1C00
0FF800
03E000
ENDCHAR

STARTCHAR odieresis
ENCODING 246
SWIDTH 580 0
DWIDTH 19 0
BBX 17 23 0 0
BITMAP
063000
063000
063000
063000
000000
000000
03E000
0FF800
1C1C00
300600
600300
600300
C00180
C00180
C00180
C00180
C00180
600300
600300
300600
1C1C00
0FF800
03E000
ENDCHAR

STARTCHAR divide
ENCODING 247
SWIDTH 660 0
DWIDTH 21 0
BBX 16 14 2 4
BITMAP
0180
0180
0180
0000
0000
0000
FFFF
FFFF
0000
0000
0000
0180
0180
0180
ENDCHAR

STARTCHAR oslash
ENCODING 248
SWIDTH 580 0
DWIDTH 19 0
BBX 17 19 0 -1
BITMAP
000300
03E600
0FFC00
1C1C00
301E00
601300
603300
C06180
C0C180
C08180
C18180
C30180
620300
660300
3C0600
1C1C00
1FF800
33E000
600000
ENDCHAR

STARTCHAR ugrave
ENCODING 249
SWIDTH 640 0
DWIDTH 20 0
BBX 20 25 0 0
BITMAP
0C0000
0F0000
078000
01E000
007000
001000
000000
000000
F80F80
F80F80
180180
180180
180180
180180
180180
180180
180180
180180
180180
180180
1C0180
0C0380
0E0D80
03F9F0
01F1F0
ENDCHAR

STARTCHAR uacute
ENCODING 250
SWIDTH 640 0
DWIDTH 20 0
BBX 20 25 0 0
BITMAP
000600
001E00
003C00
00F000
01C000
010000
000000
000000
F80F80
F80F80
180180
180180
180180
180180
180180
180180
180180
180180
180180
180180
1C0180
0C0380
0E0D80
03F9F0
01F1F0
ENDCHAR

STARTCHAR ucircumflex
ENCODING 251
SWIDTH 640 0
DWIDTH 20 0
BBX 20 24 0 0
BITMAP
006000
00F000
039C00
070E00
0E0700
000000
000000
F80F80
F80F80
180180
180180
180180
180180
180180
180180
180180
180180
180180
180180
1C0180
0C0380
0E0D80
03F9F0
01F1F0
ENDCHAR

STARTCHAR udieresis
ENCODING 252
SWIDTH 640 0
DWIDTH 20 0
BBX 20 23 0 0
BITMAP
031800
031800
031800
031800
000000
000000
F80F80
F80F80
180180
180180
180180
180180
180180
180180
180180
180180
180180
180180
1C0180
0C0380
0E0D80
03F9F0
01F1F0
ENDCHAR

STARTCHAR yacute
ENCODING 253
SWIDTH 640 0
DWIDTH 20 0
BBX 19 31 0 -6
BITMAP
000600
001E00
003C00
00F000
01C000
010000
000000
000000
FE0FE0
FE0FE0
180300
180300
1C0600
0C0600
0C0600
060C00
060C00
061800
031800
031800
01B000
01B000
01E000
00E000
00C000
00C000
00C000
018000
018000
0FE000
0FE000
ENDCHAR

STARTCHAR thorn
ENCODING 254
SWIDTH 660 0
DWIDTH 21 0
BBX 20 29 0 -6
BITMAP
F80000
F80000
180000
180000
180000
180000
187C00
19FF00
1B8180
1E00C0
1C0060
1C0060
180030
180030
180030
180030
180030
1C0060
1C0060
1E00C0
1B8380
19FF00
187C00
180000
180000
180000
180000
FF0000
FF0000
ENDCHAR

STARTCHAR ydieresis
ENCODING 255
SWIDTH 640 0
DWIDTH 20 0
BBX 19 29 0 -6
BITMAP
031800
031800
031800
031800
000000
000000
FE0FE0
FE0FE0
180300
180300
1C0600
0C0600
0C0600
060C00
060C00
061800
031800
031800
01B000
01B000
01E000
00E000
00C000
00C000
00C000
018000
018000
0FE000
0FE000
ENDCHAR
ENDFONT
